# xmcd
#
# Track frame offsets: 
#        150
#        16335
#        37864
#        52149
#        70483
#        86611
#        100015
#        115974
#        140856
#        155419
#        170616
#
# Disc length: 2539 seconds
#
# Revision: 1
# Processed by: cddbd v1.5.2PL0 Copyright (c) Steve Scherf et al.
# Submitted via: ExactAudioCopy v0.95a4
#
DISCID=9509e90b
DTITLE=C.J. Chenier - The Desperate Kingdom Of Love
DYEAR=2006
DGENRE=Zydeco/Cajun
TTITLE0=The Desperate Kingdome Of Love
TTITLE1=Black Snake Blues
TTITLE2=I've Been Good To You Baby
TTITLE3=Learning To Live
TTITLE4=Rosemary
TTITLE5=Lost On The River
TTITLE6=Who's Creatin' Who ?
TTITLE7=A'int No Need In Cryin'
TTITLE8=Finger Lickin' Chicken
TTITLE9=Bougalousa Boogie
TTITLE10=Comfort You
EXTD=
EXTT0=
EXTT1=
EXTT2=
EXTT3=
EXTT4=
EXTT5=
EXTT6=
EXTT7=
EXTT8=
EXTT9=
EXTT10=
PLAYORDER=
